<?xml version="1.0" encoding="iso-8859-1"?>
<!-- Generator: Adobe Illustrator 18.0.0, SVG Export Plug-In . SVG Version: 6.00 Build 0)  -->
<!DOCTYPE svg PUBLIC "-//W3C//DTD SVG 1.1//EN" "http://www.w3.org/Graphics/SVG/1.1/DTD/svg11.dtd">
<svg version="1.1" id="Capa_1" xmlns="http://www.w3.org/2000/svg" xmlns:xlink="http://www.w3.org/1999/xlink" x="0px" y="0px"
	 viewBox="0 0 350 350" style="enable-background:new 0 0 350 350;" xml:space="preserve" fill="#b1a374">
<path d="M285.693,175c35.441-25.721,41.15-82.578,41.387-85.1c0.16-1.712-0.779-3.338-2.342-4.057
	c-1.186-0.543-29.365-13.316-60.266-13.316c-12.799,0-24.246,2.221-34.125,6.614c-4.555-43.554-50.939-76.931-53.006-78.396
	c-1.402-0.994-3.281-0.994-4.684,0c-2.064,1.466-48.451,34.843-53.006,78.396c-9.879-4.394-21.326-6.614-34.123-6.614
	c-30.904,0-59.082,12.773-60.266,13.317c-1.565,0.718-2.502,2.344-2.344,4.056c0.238,2.522,5.945,59.379,41.389,85.1
	c-35.443,25.719-41.15,82.578-41.389,85.098c-0.158,1.713,0.779,3.34,2.344,4.057c1.184,0.544,29.363,13.318,60.266,13.318
	c12.797,0,24.244-2.223,34.123-6.615c4.555,43.553,50.941,76.932,53.006,78.396C173.359,349.75,174.18,350,175,350
	s1.641-0.25,2.342-0.746c2.066-1.465,48.451-34.844,53.006-78.396c9.879,4.393,21.326,6.615,34.125,6.615l0,0
	c30.902,0,59.082-12.775,60.266-13.318c1.563-0.717,2.502-2.344,2.342-4.057C326.844,257.579,321.135,200.719,285.693,175z
	 M240.822,117.543c8.207,0.741,14.496,4.047,17.543,9.322c3.279,5.682,2.707,12.971-0.875,20.376
	c-6.729-3.143-14.668-5.274-23.344-6.054C237.951,133.156,240.164,125.067,240.822,117.543z M223.842,207.517
	c4.689,8.349,7.438,16.983,8.285,24.811c-7.441-0.804-15.338-3.307-22.846-7.271c-0.637-15.32-5.408-28.721-12.738-37.613
	c2.41,0.404,4.939,0.611,7.559,0.611c9.729,0,20.689-2.789,31.395-8.391c7.586,4.766,13.764,10.563,18.088,16.574
	c-7.326,3.266-16.406,5.217-26.225,5.246c-1.436,0.004-2.762,0.768-3.486,2.01C223.15,204.735,223.139,206.264,223.842,207.517z
	 M181.018,164.572c-1.416-10.482,6.436-23.982,19.666-34.064C198.566,147.01,190.801,160.559,181.018,164.572z M226.381,175
	c-15.355,6.423-30.975,6.471-39.34-0.001C195.406,168.528,211.025,168.577,226.381,175z M181.018,185.428
	c9.785,4.012,17.549,17.561,19.668,34.064C187.453,209.411,179.602,195.911,181.018,185.428z M235.494,170.336
	c-13.592-7.112-27.588-9.683-38.957-7.775c7.332-8.893,12.107-22.295,12.744-37.617c7.697-4.066,15.803-6.591,23.4-7.326
	c-0.84,7.963-3.689,16.782-8.563,25.279c-0.713,1.246-0.717,2.777-0.004,4.023c0.713,1.246,2.033,2.023,3.471,2.039
	c9.59,0.111,18.457,2.055,25.666,5.249C248.947,160.059,242.893,165.689,235.494,170.336z M215.068,89.676
	c3.125,0,5.959,0.727,8.422,2.162c5.557,3.24,8.662,9.656,9.32,17.638c-7.736,0.63-15.898,2.876-23.75,6.536
	c-0.738-8.67-2.83-16.611-5.938-23.35C207.182,90.727,211.242,89.676,215.068,89.676z M175,78.738
	c6.566,0,12.596,4.146,17.219,10.959c-6.152,4.296-11.971,10.144-16.932,17.183c-5.016-7.252-10.932-13.258-17.197-17.631
	C162.672,82.704,168.58,78.738,175,78.738z M154.084,96.358c6.58,4.762,12.813,11.697,17.668,20.054
	c0.723,1.243,2.047,2.009,3.482,2.015c1.398,0,2.77-0.748,3.502-1.984c4.813-8.115,10.936-14.875,17.398-19.574
	c2.908,6.648,4.75,14.693,5.074,23.41c-12.949,8.211-22.174,19.045-26.209,29.843c-4.035-10.798-13.258-21.632-26.209-29.843
	C149.123,111.34,151.049,103.101,154.084,96.358z M176.315,174.999c-0.117,0.19-0.248,0.374-0.359,0.566
	c-0.109,0.189-0.197,0.384-0.301,0.574c-0.436-0.012-0.873-0.012-1.309,0c-0.104-0.19-0.193-0.386-0.301-0.575
	c-0.111-0.191-0.24-0.376-0.359-0.564c0.119-0.191,0.25-0.375,0.361-0.568c0.109-0.188,0.197-0.381,0.299-0.571
	c0.219,0.005,0.438,0.026,0.654,0.026s0.436-0.021,0.656-0.026c0.104,0.19,0.191,0.386,0.301,0.575
	C176.066,174.627,176.197,174.811,176.315,174.999z M125.885,203.08c-0.713-1.247-2.035-2.023-3.469-2.04
	c-9.592-0.11-18.457-2.055-25.666-5.248c4.303-5.852,10.357-11.48,17.756-16.129c10.707,5.603,21.662,8.393,31.392,8.393
	c2.619,0,5.148-0.207,7.561-0.611c-7.33,8.893-12.104,22.293-12.74,37.613c-7.697,4.065-15.801,6.59-23.4,7.325
	c0.842-7.962,3.691-16.782,8.563-25.28C126.596,205.856,126.598,204.327,125.885,203.08z M126.16,142.483
	c-4.693-8.348-7.441-16.982-8.285-24.812c7.438,0.803,15.336,3.306,22.844,7.272c0.637,15.323,5.412,28.726,12.746,37.619
	c-11.367-1.908-25.367,0.661-38.959,7.775c-7.586-4.767-13.766-10.563-18.09-16.576c7.328-3.267,16.408-5.217,26.227-5.245
	c1.436-0.005,2.76-0.769,3.486-2.01C126.852,145.266,126.863,143.735,126.16,142.483z M149.315,130.507
	c13.232,10.082,21.084,23.581,19.668,34.065C159.199,160.559,151.434,147.01,149.315,130.507z M162.959,174.999
	c-8.365,6.472-23.984,6.423-39.34,0.001C138.977,168.577,154.594,168.528,162.959,174.999z M168.984,185.428
	c1.416,10.482-6.438,23.982-19.67,34.064C151.434,202.989,159.199,189.44,168.984,185.428z M127.219,91.428
	c2.43-1.389,5.211-2.091,8.27-2.091c3.727,0,7.662,1.007,11.604,2.854c-3.229,6.836-5.396,14.949-6.152,23.82
	c-7.676-3.578-15.65-5.807-23.229-6.495C118.338,101.293,121.514,94.69,127.219,91.428z M91.633,126.866
	c3.115-5.391,9.619-8.716,18.092-9.358c0.648,7.381,2.771,15.3,6.424,23.181c-8.883,0.721-17.016,2.858-23.871,6.064
	C88.906,139.516,88.428,132.422,91.633,126.866z M78.732,174.592c0.029-6.419,4.016-12.309,10.578-16.861
	c4.307,6.225,10.256,12.169,17.57,17.27c-7.15,4.984-12.986,10.777-17.27,16.85C82.824,187.198,78.705,181.154,78.732,174.592z
	 M109.18,232.456c-8.207-0.74-14.498-4.045-17.545-9.32c-3.279-5.684-2.705-12.973,0.875-20.378
	c6.73,3.144,14.67,5.274,23.346,6.054C112.049,216.844,109.836,224.933,109.18,232.456z M134.932,260.325
	c-3.125,0-5.957-0.729-8.422-2.164c-5.557-3.238-8.662-9.656-9.318-17.637c7.734-0.631,15.896-2.876,23.748-6.537
	c0.738,8.671,2.83,16.611,5.938,23.351C142.818,259.273,138.76,260.325,134.932,260.325z M175,271.262
	c-6.566,0-12.596-4.147-17.219-10.959c6.152-4.297,11.971-10.144,16.93-17.184c5.018,7.253,10.934,13.258,17.199,17.631
	C187.33,267.296,181.422,271.262,175,271.262z M195.916,253.642c-6.58-4.762-12.813-11.698-17.67-20.054
	c-0.721-1.242-2.047-2.01-3.482-2.016c0,0-0.012,0-0.02,0c-1.43,0-2.752,0.754-3.482,1.984
	c-4.811,8.115-10.934,14.876-17.397,19.576c-2.908-6.649-4.75-14.695-5.074-23.412c12.951-8.211,22.174-19.043,26.209-29.842
	c4.037,10.799,13.26,21.632,26.209,29.843C200.877,238.661,198.951,246.899,195.916,253.642z M222.779,258.572
	c-2.43,1.388-5.211,2.091-8.268,2.091l0,0c-3.727,0-7.662-1.008-11.602-2.853c3.229-6.838,5.396-14.951,6.15-23.822
	c7.674,3.578,15.65,5.809,23.229,6.496C231.66,248.707,228.484,255.311,222.779,258.572z M258.367,223.133
	c-3.115,5.393-9.621,8.719-18.092,9.359c-0.648-7.381-2.773-15.299-6.424-23.18c8.883-0.723,17.016-2.859,23.873-6.066
	C261.096,210.484,261.574,217.577,258.367,223.133z M260.691,192.27c-4.309-6.227-10.258-12.17-17.572-17.27
	c7.15-4.984,12.988-10.778,17.271-16.852c6.785,4.652,10.904,10.697,10.875,17.259C271.238,181.827,267.252,187.715,260.691,192.27z
	"/>
<g>
</g>
<g>
</g>
<g>
</g>
<g>
</g>
<g>
</g>
<g>
</g>
<g>
</g>
<g>
</g>
<g>
</g>
<g>
</g>
<g>
</g>
<g>
</g>
<g>
</g>
<g>
</g>
<g>
</g>
</svg>
