<?xml version="1.0" encoding="iso-8859-1"?>
<!-- Generator: Adobe Illustrator 19.0.0, SVG Export Plug-In . SVG Version: 6.00 Build 0)  -->
<svg version="1.1" id="Capa_1" xmlns="http://www.w3.org/2000/svg" xmlns:xlink="http://www.w3.org/1999/xlink" x="0px" y="0px"
	 viewBox="0 0 512 512" style="enable-background:new 0 0 512 512;" xml:space="preserve">
<g>
	<g fill="#b1a374">
		<path d="M338.207,240.001c-16.348,0-22.529,20.479-22.778,21.357c-1.875,6.416-7.544,11.631-14.517,10.84
			c-6.709-0.044-12.583-4.482-14.37-10.942c-0.22-0.776-6.401-21.255-22.749-21.255c-14.59,0-22.222,12.773-22.222,25.4
			c0,17.87,16.158,32.299,49.776,60.659c3.12,2.637,6.343,5.361,9.653,8.174c3.311-2.813,6.533-5.522,9.639-8.159
			c22.637-19.092,49.79-40.459,49.79-60.674C360.429,252.774,352.797,240.001,338.207,240.001z"/>
	</g>
</g>
<g>
	<g fill="#b1a374">
		<path d="M451,285c0-65.907-38.414-123.699-97.183-150.084c4.395-8.395,7.183-17.69,7.183-27.616
			c0-25.796-16.436-48.589-40.898-56.733L301,44.18c-24.133-8.026-46.382-21.793-64.38-39.772C233.82,1.6,229.901,0,226,0h-90
			c-6.46,0-12.188,4.131-14.224,10.254l-15.557,46.67c-10.547,31.626-6.987,66.299,9.741,95.112
			c19.028,32.769,13.55,74.619-13.638,104.165C75.678,285.176,61,322.808,61,362.168c0,31.011,9.082,61.025,26.279,86.792
			l36.24,56.36c2.783,4.175,7.471,6.68,12.48,6.68h180c8.291,0,15-6.709,15-15c0-17.485-3.594-36.087-9.672-51.435
			C396.402,429.304,451,363.933,451,285z M329.99,348.999c-6.021,5.083-12.437,10.503-19.16,16.333
			c-2.827,2.446-6.328,3.662-9.829,3.662c-3.501,0-7.002-1.216-9.829-3.662c-6.738-5.845-13.154-11.25-19.175-16.348
			c-35.083-29.59-60.425-50.977-60.425-83.584c-0.001-31.069,22.939-55.4,52.221-55.4c16.479,0,28.696,7.529,37.207,17.007
			c8.511-9.478,20.728-17.007,37.207-17.007c29.282,0,52.222,24.331,52.222,55.4C390.429,300.397,359.491,324.116,329.99,348.999z"
			/>
	</g>
</g>
<g>
</g>
<g>
</g>
<g>
</g>
<g>
</g>
<g>
</g>
<g>
</g>
<g>
</g>
<g>
</g>
<g>
</g>
<g>
</g>
<g>
</g>
<g>
</g>
<g>
</g>
<g>
</g>
<g>
</g>
</svg>
